<?xml version="1.0" encoding="UTF-8"?>
<svg id="Layer_1" data-name="Layer 1" xmlns="http://www.w3.org/2000/svg" viewBox="0 0 1091 1080">
  <defs>
    <style>
      .cls-1 {
        fill: #41beee;
        stroke-width: 0px;
      }

      .cls-2 {
        stroke: #000;
        stroke-miterlimit: 10;
      }
    </style>
  </defs>
  <circle class="cls-1" cx="546" cy="540" r="468.5"/>
  <path class="cls-2" d="m138.67,677.55c-9.54-44.52,3.18-92.22,28.62-124.02,22.26-31.8,50.88-34.98,89.04-44.52,54.06-25.44,73.14-50.88,108.12-101.76,9.54-66.78,31.8-104.94,54.06-117.66,0,0,47.7-31.8,108.12-15.9s79.5,60.42,85.86,82.68c6.36,22.26,22.26,95.4-54.06,136.74-76.32,41.34-133.56,38.16-152.63,139.92-3.18,79.5-50.88,104.94-50.88,104.94,0,0-41.34,34.98-85.86,34.98-44.52-3.18-54.06-9.54-79.5-22.26-34.98-19.08-50.88-73.14-50.88-73.14Zm402.26-290.96c0-28.1-22.78-50.88-50.88-50.88s-50.88,22.78-50.88,50.88,22.78,50.88,50.88,50.88,50.88-22.78,50.88-50.88Zm-228.34,261.79c0-28.54-23.13-51.67-51.67-51.67s-51.67,23.13-51.67,51.67,23.13,51.67,51.67,51.67,51.67-23.13,51.67-51.67Z"/>
  <circle class="cls-2" cx="261.1" cy="647.34" r="33.39"/>
  <circle class="cls-2" cx="490.05" cy="386.59" r="33.39"/>
  <path class="cls-2" d="m863.69,477.22s-3.18,41.34,41.34,82.68c44.52,41.34,25.44,127.2,25.44,127.2,0,0-22.26,79.5-95.4,79.5-54.06,3.18-108.12,0-143.1-82.68-28.62-89.04,54.06-139.92,54.06-139.92,0,0,92.22-41.34,117.66-66.78Zm-3.18,170.12c0-28.98-23.49-52.47-52.47-52.47s-52.47,23.49-52.47,52.47,23.49,52.47,52.47,52.47,52.47-23.49,52.47-52.47Z"/>
  <circle class="cls-2" cx="808.04" cy="647.34" r="33.39"/>
  <path class="cls-2" d="m417.32,683.65c-8.35-44.26-1.61-89.02,29.66-118.21,31.28-29.19,31.94-30.98,82.82-50.06,66.78-31.8,104.94-82.68,108.36-106.06,8.33-66.94,29.9-105.49,51.92-118.61,0,0,47.12-32.66,107.81-17.85,60.7,14.8,80.58,58.97,87.34,81.11,6.76,22.14,23.98,94.98-51.58,137.69-78.09,39.62-138.5,55.52-160.76,141.38,6.36,82.68-34.98,114.48-34.98,114.48,0,0-31.8,28.62-88.52,29.17-44.57-2.37-54.16-5.38-79.89-20.82-38.5-18.39-52.19-72.2-52.19-72.2Zm396.93-298.19c-.51-28.09-23.7-50.46-51.79-49.95s-50.46,23.7-49.95,51.79c.51,28.09,23.7,50.46,51.79,49.95,28.09-.51,50.46-23.7,49.95-51.79Zm-223.56,265.88c-.52-28.53-24.07-51.25-52.6-50.73s-51.25,24.07-50.73,52.6c.52,28.53,24.07,51.25,52.6,50.73,28.53-.52,51.25-24.07,50.73-52.6Z"/>
  <circle class="cls-2" cx="539.18" cy="651.23" r="33.39"/>
  <circle class="cls-2" cx="763.37" cy="386.38" r="33.39"/>
</svg>